Normalized EMG Linear Envelopes
nRows=122
nColumns=4

endheader
time	 med_gas_r	  soleus_r	 tib_ant_r	
2.79133	  0.016703	  0.016298	  0.006086	
2.8629	  0.016966	  0.015270	  0.005473	
2.93448	  0.016766	  0.014461	  0.005160	
3.00605	  0.016208	  0.013967	  0.005239	
3.07762	  0.015806	  0.013855	  0.005544	
3.14919	  0.015877	  0.014092	  0.005827	
3.22077	  0.016312	  0.014407	  0.005994	
3.29234	  0.016780	  0.014463	  0.006159	
3.36391	  0.017054	  0.014114	  0.006431	
3.43548	  0.017231	  0.013502	  0.006673	
3.50706	  0.017499	  0.012988	  0.006641	
3.57863	  0.017795	  0.012845	  0.006356	
3.6502	  0.017921	  0.013011	  0.006050	
3.72177	  0.017721	  0.013262	  0.005833	
3.79335	  0.017149	  0.013440	  0.005655	
3.86492	  0.016439	  0.013495	  0.005477	
3.93649	  0.016021	  0.013571	  0.005398	
4.00806	  0.016044	  0.013913	  0.005530	
4.07964	  0.016140	  0.014454	  0.005784	
4.15121	  0.015924	  0.014775	  0.005993	
4.22278	  0.015537	  0.014598	  0.006152	
4.29435	  0.015362	  0.014107	  0.006352	
4.36593	  0.015544	  0.014041	  0.006714	
4.4375	  0.016081	  0.015769	  0.007497	
4.50907	  0.016971	  0.020626	  0.008889	
4.58065	  0.017951	  0.027960	  0.010410	
4.65222	  0.018453	  0.034421	  0.011150	
4.72379	  0.018619	  0.038610	  0.011726	
4.79536	  0.020584	  0.046795	  0.016050	
4.86694	  0.027633	  0.068498	  0.029687	
4.93851	  0.041038	  0.104660	  0.054563	
5.01008	  0.058166	  0.145111	  0.084679	
5.08165	  0.074528	  0.177838	  0.108345	
5.15323	  0.086846	  0.195623	  0.117028	
5.2248	  0.094733	  0.198062	  0.113505	
5.29637	  0.103611	  0.195681	  0.109870	
5.36794	  0.123355	  0.204137	  0.116147	
5.43952	  0.156179	  0.224672	  0.131923	
5.51109	  0.189437	  0.240601	  0.148688	
5.58266	  0.208234	  0.239340	  0.158313	
5.65423	  0.210862	  0.227515	  0.159064	
5.72581	  0.205603	  0.221773	  0.154231	
5.79738	  0.198331	  0.231671	  0.147122	
5.86895	  0.191639	  0.253754	  0.140944	
5.94052	  0.190145	  0.279040	  0.140931	
6.0121	  0.197484	  0.301204	  0.149947	
6.08367	  0.211803	  0.317354	  0.163569	
6.15524	  0.227803	  0.326248	  0.174169	
6.22681	  0.240650	  0.328010	  0.178587	
6.29839	  0.248059	  0.324448	  0.179686	
6.36996	  0.250585	  0.319546	  0.180795	
6.44153	  0.251473	  0.318472	  0.180321	
6.5131	  0.253786	  0.322674	  0.174068	
6.58468	  0.254720	  0.327441	  0.162254	
6.65625	  0.247037	  0.328679	  0.150383	
6.72782	  0.228653	  0.325619	  0.144280	
6.7994	  0.206890	  0.315350	  0.146675	
6.87097	  0.192566	  0.298710	  0.154930	
6.94254	  0.192148	  0.288689	  0.162098	
7.01411	  0.204840	  0.298214	  0.163553	
7.08569	  0.223976	  0.324679	  0.160318	
7.15726	  0.241151	  0.352036	  0.155137	
7.22883	  0.253725	  0.363503	  0.149472	
7.3004	  0.266419	  0.355196	  0.143903	
7.37198	  0.279754	  0.337774	  0.138950	
7.44355	  0.285637	  0.324918	  0.137297	
7.51512	  0.281420	  0.324748	  0.142974	
7.58669	  0.275979	  0.335531	  0.155332	
7.65827	  0.276844	  0.345803	  0.167714	
7.72984	  0.280903	  0.345340	  0.173048	
7.80141	  0.281008	  0.336467	  0.168803	
7.87298	  0.276965	  0.331547	  0.159010	
7.94456	  0.274638	  0.339727	  0.151824	
8.01613	  0.274729	  0.357063	  0.151893	
8.0877	  0.269764	  0.369387	  0.155879	
8.15927	  0.255568	  0.365982	  0.157222	
8.23085	  0.239493	  0.351950	  0.153219	
8.30242	  0.232765	  0.344656	  0.145787	
8.37399	  0.239911	  0.353811	  0.138135	
8.44556	  0.256766	  0.369395	  0.133830	
8.51714	  0.273464	  0.376352	  0.135745	
8.58871	  0.282608	  0.373754	  0.141874	
8.66028	  0.285924	  0.370408	  0.146018	
8.73185	  0.287785	  0.370337	  0.145523	
8.80343	  0.288179	  0.370243	  0.144774	
8.875	  0.285383	  0.363449	  0.149534	
8.94657	  0.278383	  0.346585	  0.159566	
9.01815	  0.268110	  0.328479	  0.167903	
9.08972	  0.257423	  0.322555	  0.167569	
9.16129	  0.247641	  0.328540	  0.157996	
9.23286	  0.241102	  0.335228	  0.145350	
9.30444	  0.245827	  0.339143	  0.137950	
9.37601	  0.267688	  0.346890	  0.140155	
9.44758	  0.300377	  0.358727	  0.149743	
9.51915	  0.329843	  0.362033	  0.160154	
9.59073	  0.344128	  0.346881	  0.163832	
9.6623	  0.336890	  0.321011	  0.156671	
9.73387	  0.309873	  0.301882	  0.142526	
9.80544	  0.277168	  0.297237	  0.130478	
9.87702	  0.261200	  0.302405	  0.126970	
9.94859	  0.276196	  0.313681	  0.132900	
10.0202	  0.315067	  0.331198	  0.144753	
10.0917	  0.353800	  0.349747	  0.156424	
10.1633	  0.368189	  0.360031	  0.162825	
10.2349	  0.348276	  0.356410	  0.161158	
10.3065	  0.299556	  0.333111	  0.149547	
10.378	  0.236476	  0.283442	  0.128908	
10.4496	  0.176143	  0.213415	  0.104426	
10.5212	  0.129650	  0.143151	  0.081306	
10.5927	  0.096069	  0.088700	  0.061288	
10.6643	  0.068378	  0.052468	  0.044449	
10.7359	  0.044019	  0.030311	  0.031046	
10.8075	  0.026031	  0.018427	  0.021019	
10.879	  0.016578	  0.013701	  0.013987	
10.9506	  0.013939	  0.013033	  0.009857	
11.0222	  0.014733	  0.013798	  0.008518	
11.0937	  0.016403	  0.014465	  0.009230	
11.1653	  0.017746	  0.014801	  0.010705	
11.2369	  0.018558	  0.015244	  0.011704	
11.3085	  0.019231	  0.016029	  0.011648	
11.38	  0.020164	  0.017047	  0.010670	
11.4516	  0.021375	  0.018151	  0.009209	
